HIERARCHY
ROOT Hips
{
    OFFSET 0.000000 0.000000 0.000000
    CHANNELS 6 Xposition Yposition Zposition Zrotation Xrotation Yrotation
    JOINT Spine
    {
        OFFSET -0.000000 8.249566 0.000000
        CHANNELS 3 Zrotation Xrotation Yrotation
        JOINT Spine1
        {
            OFFSET -0.000000 22.751984 0.000000
            CHANNELS 3 Zrotation Xrotation Yrotation
            JOINT Neck
            {
                OFFSET -0.000000 22.658548 2.059868
                CHANNELS 3 Zrotation Xrotation Yrotation
                JOINT Head
                {
                    OFFSET -0.000000 14.084625 -2.012089
                    CHANNELS 3 Zrotation Xrotation Yrotation
                    End Site
                    {
                        OFFSET -0.000000 25.151115 0.000000
                    }
                }
            }
            JOINT LeftShoulder
            {
                OFFSET 4.014710 20.418900 0.142539
                CHANNELS 3 Zrotation Xrotation Yrotation
                JOINT LeftArm
                {
                    OFFSET 12.409162 0.000000 0.000000
                    CHANNELS 3 Zrotation Xrotation Yrotation
                    JOINT LeftForeArm
                    {
                        OFFSET 32.111938 0.000000 0.000000
                        CHANNELS 3 Zrotation Xrotation Yrotation
                        JOINT LeftHand
                        {
                            OFFSET 25.320286 0.000000 0.000000
                            CHANNELS 3 Zrotation Xrotation Yrotation
                            End Site
                            {
                                OFFSET 15.090670 0.000000 0.000000
                            }
                        }
                    }
                }
            }
            JOINT RightShoulder
            {
                OFFSET -4.019371 20.418900 0.142539
                CHANNELS 3 Zrotation Xrotation Yrotation
                JOINT RightArm
                {
                    OFFSET -12.409162 0.000000 0.000000
                    CHANNELS 3 Zrotation Xrotation Yrotation
                    JOINT RightForeArm
                    {
                        OFFSET -32.111938 0.000000 0.000000
                        CHANNELS 3 Zrotation Xrotation Yrotation
                        JOINT RightHand
                        {
                            OFFSET -25.320286 0.000000 0.000000
                            CHANNELS 3 Zrotation Xrotation Yrotation
                            End Site
                            {
                                OFFSET -15.090670 0.000000 0.000000
                            }
                        }
                    }
                }
            }
        }
    }
    JOINT LeftUpLeg
    {
        OFFSET 10.060447 0.000000 0.000000
        CHANNELS 3 Zrotation Xrotation Yrotation
        JOINT LeftLeg
        {
            OFFSET -0.000000 -49.683781 0.000000
            CHANNELS 3 Zrotation Xrotation Yrotation
            JOINT LeftFoot
            {
                OFFSET -0.000000 -37.035061 0.000000
                CHANNELS 3 Zrotation Xrotation Yrotation
                JOINT LeftToeBase
                {
                    OFFSET -0.000000 -6.539289 15.090670
                    CHANNELS 3 Zrotation Xrotation Yrotation
                    End Site
                    {
                        OFFSET -0.000000 0.000000 4.024179
                    }
                }
            }
        }
    }
    JOINT RightUpLeg
    {
        OFFSET -10.060447 0.000000 0.000000
        CHANNELS 3 Zrotation Xrotation Yrotation
        JOINT RightLeg
        {
            OFFSET -0.000000 -49.683781 0.000000
            CHANNELS 3 Zrotation Xrotation Yrotation
            JOINT RightFoot
            {
                OFFSET -0.000000 -37.035061 0.000000
                CHANNELS 3 Zrotation Xrotation Yrotation
                JOINT RightToeBase
                {
                    OFFSET -0.000000 -6.539289 15.090670
                    CHANNELS 3 Zrotation Xrotation Yrotation
                    End Site
                    {
                        OFFSET -0.000000 0.000000 4.024179
                    }
                }
            }
        }
    }
}
MOTION
Frames:    11
Frame Time:    0.008333
10.646454    81.991142    48.840328    16.087706    -21.481256    -118.081551    3.032519    7.712234    4.784206    8.961976    2.469701    4.795041    7.933724    9.055647    -22.868940    0.908912    -12.280644    -24.084244    7.124646    9.187860    -9.108142    -58.448811    46.721024    -24.845562    9.077373    -11.155376    -32.267216    -17.178389    -6.884865    -11.178634    -12.401271    -5.434757    -0.645540    42.082493    -30.955214    22.146839    -21.714565    -52.356602    94.142365    26.837122    -26.583195    40.476463    -3.092535    -45.657593    -27.384401    16.890663    69.757805    -17.021828    -8.547262    -11.270199    9.005219    0.000000    0.000000    0.000000    -47.960724    -62.468552    -47.728100    0.426603    70.901703    1.690509    -2.158633    -20.237009    -17.352297    0.000000    0.000000    0.000000    
10.659457    81.985138    48.512848    16.180079    -21.638086    -117.936470    3.004608    7.674592    4.766111    9.040396    2.493008    4.770514    8.083634    8.981290    -22.850540    0.679124    -12.415567    -24.133781    7.188898    9.185381    -9.132710    -58.406044    47.046875    -25.016359    9.243483    -11.190001    -32.425980    -16.984549    -6.886847    -11.114879    -12.589860    -5.547248    -0.753909    42.079197    -30.943810    21.955183    -22.004953    -52.517788    93.807114    26.743675    -26.702635    40.386086    -3.097243    -45.743950    -27.299288    16.499697    69.678299    -16.374542    -8.364375    -10.751159    9.173477    0.000000    0.000000    0.000000    -48.048840    -62.539570    -47.826866    0.622662    71.175728    1.741963    -2.494032    -20.558006    -17.801239    0.000000    0.000000    0.000000    
10.646932    81.968750    48.184811    16.109343    -21.693531    -117.919502    3.058667    7.765266    4.765286    9.044765    2.594518    4.767622    7.890890    8.956679    -22.922451    1.029954    -12.400966    -24.114481    7.153816    9.148809    -9.232855    -58.349316    47.191418    -25.017828    9.155560    -11.222980    -32.732559    -16.302610    -6.989768    -11.092879    -12.553044    -5.459268    -0.845545    41.896881    -31.179504    21.929476    -21.936167    -52.550114    93.822617    26.694281    -26.817450    40.448479    -2.985248    -45.621319    -27.084539    16.395664    69.700943    -16.009115    -8.311275    -10.542330    9.034488    0.000000    0.000000    0.000000    -47.785038    -62.534184    -47.549313    0.822621    71.422157    1.448898    -2.675121    -20.848364    -17.868746    0.000000    0.000000    0.000000    
10.677652    82.007393    47.902893    16.257881    -21.962183    -117.829453    2.962965    7.684226    4.776540    9.155359    2.623473    4.765441    7.841768    8.825962    -22.903492    0.962693    -12.501842    -24.115751    7.087352    9.138294    -9.147009    -58.182423    47.378277    -25.221264    9.122908    -11.199049    -32.944866    -15.800505    -6.991461    -11.199002    -12.831061    -5.513338    -0.883214    42.039028    -31.673569    21.847095    -21.515226    -52.375183    94.222267    26.903351    -26.744699    40.554249    -3.008718    -45.825951    -26.593037    16.775095    69.497101    -16.108332    -8.162854    -9.932639    9.032213    0.000000    0.000000    0.000000    -47.982574    -62.739086    -47.705078    0.932251    71.546211    1.190431    -2.844940    -20.973701    -17.908875    0.000000    0.000000    0.000000    
10.655289    82.026741    47.676254    16.271524    -22.346407    -117.761215    2.781313    7.575080    4.797547    9.221889    2.699932    4.763886    7.745168    8.676017    -22.932390    0.849785    -12.508498    -24.176346    6.982142    9.052898    -9.214453    -58.167217    47.519848    -25.161964    9.014524    -11.218563    -33.274944    -15.171089    -7.064821    -11.293968    -13.051278    -5.459690    -1.050991    41.951164    -31.833601    21.726677    -21.386332    -52.409817    94.311852    26.868731    -26.861750    40.740799    -3.315365    -45.931183    -26.466995    16.740627    69.421349    -15.755118    -8.103453    -9.532963    8.973812    0.000000    0.000000    0.000000    -48.422363    -62.849121    -48.072643    0.547383    71.734764    1.708178    -3.094186    -21.244104    -18.180363    0.000000    0.000000    0.000000    
10.676333    82.036743    47.352142    16.227676    -22.349861    -117.769081    2.627724    7.777550    4.901775    9.558750    2.625524    4.860827    7.742659    8.675878    -23.014198    0.812494    -12.732523    -24.268204    6.926427    9.114208    -9.317910    -58.101635    47.495300    -25.316080    8.834389    -11.189788    -33.519482    -14.604328    -7.111402    -11.404671    -13.319959    -5.410957    -1.240333    41.929749    -32.232944    21.570560    -20.978426    -52.242393    94.582115    26.988924    -26.883728    40.796394    -3.044128    -45.847282    -25.931292    16.830893    69.271606    -15.599136    -7.918273    -9.101820    8.917709    0.000000    0.000000    0.000000    -47.887981    -62.870621    -47.715027    0.282603    71.827988    1.611042    -3.194504    -21.500015    -18.014168    0.000000    0.000000    0.000000    
10.678699    82.063416    47.092545    16.200764    -22.542416    -117.775124    2.560393    7.824428    4.915994    9.559714    2.728275    4.862908    7.755918    8.407476    -23.001009    0.658560    -12.705556    -24.311365    6.939911    8.978930    -9.227358    -58.156773    47.515526    -25.245699    8.632994    -11.125185    -33.866600    -14.138423    -7.081837    -11.752878    -13.539289    -5.525223    -1.380315    41.668255    -31.749096    21.226231    -21.558823    -52.798630    93.982491    26.949165    -27.297619    40.955055    -2.991835    -45.806038    -26.015434    15.672442    69.246925    -14.094855    -7.868614    -8.879932    8.741202    0.000000    0.000000    0.000000    -47.809216    -62.931046    -47.618618    0.156662    71.961342    1.986714    -3.534038    -21.737762    -18.429533    0.000000    0.000000    0.000000    
10.654359    82.078209    46.837429    16.128414    -22.691031    -117.772163    2.493315    7.903444    4.924483    9.611920    2.681984    4.871164    7.649540    8.513857    -23.037542    0.799220    -12.745153    -24.300255    6.878960    9.042788    -9.353937    -58.241192    47.362457    -25.060701    8.515580    -11.141258    -34.133560    -14.003918    -7.085282    -12.084569    -13.603735    -5.484249    -1.499105    41.709896    -32.147572    21.313190    -21.201340    -52.465782    94.172195    27.091791    -27.065062    40.920448    -2.976089    -45.729122    -25.864359    14.975556    69.054901    -12.541344    -7.608196    -8.275973    8.236956    0.000000    0.000000    0.000000    -47.682484    -62.913700    -47.413361    0.226310    72.069527    1.726158    -3.648219    -22.019270    -18.344637    0.000000    0.000000    0.000000    
10.652960    82.119545    46.584938    16.112286    -22.861986    -117.739624    2.436282    7.930067    4.907883    9.494265    2.719701    4.850843    7.930219    8.462416    -23.022161    0.634562    -12.883877    -24.346674    7.152141    9.113290    -9.320319    -58.301235    47.252598    -25.208342    8.390009    -11.102858    -34.300686    -13.844984    -7.049405    -12.405698    -13.610619    -5.540482    -1.588907    41.450375    -32.016148    21.121731    -21.437786    -52.595806    93.638512    27.195942    -27.117981    41.152100    -2.986713    -45.748276    -25.355844    15.645994    68.918823    -13.324131    -7.533832    -7.892519    8.339483    0.000000    0.000000    0.000000    -47.618725    -62.947483    -47.328644    0.153809    72.140823    1.626936    -3.733996    -22.177338    -18.301777    0.000000    0.000000    0.000000    
10.667041    82.195663    46.377106    16.187126    -23.154078    -117.668877    2.405367    7.872585    4.867152    9.306966    2.697412    4.813041    8.089040    8.399047    -22.969646    0.471411    -12.871712    -24.347553    7.281536    9.127583    -9.339652    -58.374241    47.175240    -25.116348    8.319281    -11.232289    -34.494740    -13.899792    -7.139502    -12.742557    -13.593049    -5.614693    -1.639727    41.194000    -31.721354    20.941570    -21.868076    -52.828590    93.014893    27.267309    -27.219366    41.197792    -3.087407    -45.882656    -24.984570    15.861684    68.666145    -13.497873    -7.382206    -7.360915    8.363734    0.000000    0.000000    0.000000    -47.911480    -63.085823    -47.464291    0.309323    72.207787    1.423681    -3.806283    -22.171236    -18.368353    0.000000    0.000000    0.000000    
10.662390    82.241486    46.154163    16.164061    -23.283712    -117.630280    2.347837    7.950337    4.849233    9.404757    2.558056    4.801914    8.070984    8.617287    -22.991045    0.405479    -13.017666    -24.367510    7.204780    9.295867    -9.503980    -58.380116    46.971558    -25.039948    8.278887    -11.294503    -34.597733    -14.112482    -7.182426    -12.746587    -13.741361    -5.622566    -1.652918    41.124817    -31.833830    20.842882    -21.495306    -52.579018    93.119370    27.513971    -27.054096    41.395535    -3.041465    -45.838337    -24.731953    15.803951    68.480965    -13.423573    -7.276437    -7.046492    8.342290    0.000000    0.000000    0.000000    -47.761593    -63.127151    -47.387703    -0.243619    72.271698    1.765292    -3.822127    -22.280630    -18.322483    0.000000    0.000000    0.000000    
